<svg width="592" height="59" viewBox="0 0 592 59" fill="none" xmlns="http://www.w3.org/2000/svg">
<path d="M16.02 42.36C16.02 45.68 15.42 48.42 14.22 50.58C13.06 52.74 11.5 54.42 9.54 55.62C7.62 56.86 5.32 57.92 2.64 58.8L0 51.84C1.76 51.16 3.08 50.38 3.96 49.5C4.84 48.62 5.42 47.6 5.7 46.44C6.02 45.28 6.18 43.8 6.18 42V7.08H16.02V42.36Z" fill="#141414"/>
<path d="M37.223 15.78C42.103 15.78 45.923 17.28 48.683 20.28C51.443 23.24 52.823 27.4 52.823 32.76C52.823 36.16 52.183 39.14 50.903 41.7C49.663 44.22 47.863 46.18 45.503 47.58C43.183 48.98 40.423 49.68 37.223 49.68C32.383 49.68 28.563 48.2 25.763 45.24C23.003 42.24 21.623 38.06 21.623 32.7C21.623 29.3 22.243 26.34 23.483 23.82C24.763 21.26 26.563 19.28 28.883 17.88C31.243 16.48 34.023 15.78 37.223 15.78ZM37.223 22.74C35.303 22.74 33.863 23.56 32.903 25.2C31.943 26.8 31.463 29.3 31.463 32.7C31.463 36.18 31.923 38.72 32.843 40.32C33.803 41.92 35.263 42.72 37.223 42.72C39.143 42.72 40.583 41.92 41.543 40.32C42.503 38.68 42.983 36.16 42.983 32.76C42.983 29.28 42.503 26.74 41.543 25.14C40.623 23.54 39.183 22.74 37.223 22.74Z" fill="#141414"/>
<path d="M83.1961 39.42C83.1961 40.62 83.3561 41.5 83.6761 42.06C84.0361 42.62 84.5961 43.04 85.3561 43.32L83.3761 49.5C81.4161 49.34 79.8161 48.92 78.5761 48.24C77.3361 47.52 76.3761 46.4 75.6961 44.88C73.6161 48.08 70.4161 49.68 66.0961 49.68C62.9361 49.68 60.4161 48.76 58.5361 46.92C56.6561 45.08 55.7161 42.68 55.7161 39.72C55.7161 36.24 56.9961 33.58 59.5561 31.74C62.1161 29.9 65.8161 28.98 70.6561 28.98H73.8961V27.6C73.8961 25.72 73.4961 24.44 72.6961 23.76C71.8961 23.04 70.4961 22.68 68.4961 22.68C67.4561 22.68 66.1961 22.84 64.7161 23.16C63.2361 23.44 61.7161 23.84 60.1561 24.36L57.9961 18.12C59.9961 17.36 62.0361 16.78 64.1161 16.38C66.2361 15.98 68.1961 15.78 69.9961 15.78C74.5561 15.78 77.8961 16.72 80.0161 18.6C82.1361 20.48 83.1961 23.3 83.1961 27.06V39.42ZM68.8561 42.9C71.0161 42.9 72.6961 41.88 73.8961 39.84V34.2H71.5561C69.3961 34.2 67.7761 34.58 66.6961 35.34C65.6561 36.1 65.1361 37.28 65.1361 38.88C65.1361 40.16 65.4561 41.16 66.0961 41.88C66.7761 42.56 67.6961 42.9 68.8561 42.9ZM73.8961 10.56C73.0161 10.56 72.2561 10.42 71.6161 10.14C70.9761 9.86 70.2761 9.46 69.5161 8.94C68.5161 8.22 67.6961 7.86 67.0561 7.86C66.3761 7.86 65.7961 8.08 65.3161 8.52C64.8761 8.92 64.3961 9.58 63.8761 10.5L59.1361 8.22C59.9361 6.14 60.9961 4.44 62.3161 3.12C63.6761 1.8 65.1961 1.14 66.8761 1.14C67.7961 1.14 68.5761 1.3 69.2161 1.62C69.8961 1.9 70.6361 2.3 71.4361 2.82C71.9961 3.18 72.4361 3.44 72.7561 3.6C73.1161 3.76 73.4761 3.84 73.8361 3.84C74.4761 3.84 75.0161 3.64 75.4561 3.24C75.9361 2.8 76.4361 2.12 76.9561 1.2L81.6961 3.54C80.8561 5.66 79.7561 7.36 78.3961 8.64C77.0761 9.92 75.5761 10.56 73.8961 10.56Z" fill="#141414"/>
<path d="M104.547 15.78C109.427 15.78 113.247 17.28 116.007 20.28C118.767 23.24 120.147 27.4 120.147 32.76C120.147 36.16 119.507 39.14 118.227 41.7C116.987 44.22 115.187 46.18 112.827 47.58C110.507 48.98 107.747 49.68 104.547 49.68C99.7072 49.68 95.8872 48.2 93.0872 45.24C90.3272 42.24 88.9472 38.06 88.9472 32.7C88.9472 29.3 89.5672 26.34 90.8072 23.82C92.0872 21.26 93.8872 19.28 96.2072 17.88C98.5672 16.48 101.347 15.78 104.547 15.78ZM104.547 22.74C102.627 22.74 101.187 23.56 100.227 25.2C99.2672 26.8 98.7872 29.3 98.7872 32.7C98.7872 36.18 99.2472 38.72 100.167 40.32C101.127 41.92 102.587 42.72 104.547 42.72C106.467 42.72 107.907 41.92 108.867 40.32C109.827 38.68 110.307 36.16 110.307 32.76C110.307 29.28 109.827 26.74 108.867 25.14C107.947 23.54 106.507 22.74 104.547 22.74Z" fill="#141414"/>
<path d="M153.645 7.08C159.125 7.08 163.385 8.22 166.425 10.5C169.465 12.78 170.985 16.16 170.985 20.64C170.985 25.32 169.485 28.86 166.485 31.26C163.525 33.62 159.545 34.8 154.545 34.8H150.045V48.66H140.205V7.08H153.645ZM153.705 27.72C156.025 27.72 157.785 27.18 158.985 26.1C160.225 24.98 160.845 23.16 160.845 20.64C160.845 16.28 158.405 14.1 153.525 14.1H150.045V27.72H153.705Z" fill="#141414"/>
<path d="M201.965 32.1C201.965 33.42 201.905 34.56 201.785 35.52H182.045C182.365 38.2 183.125 40.08 184.325 41.16C185.525 42.24 187.185 42.78 189.305 42.78C190.585 42.78 191.825 42.56 193.025 42.12C194.225 41.64 195.525 40.92 196.925 39.96L200.825 45.24C197.105 48.2 192.965 49.68 188.405 49.68C183.245 49.68 179.285 48.16 176.525 45.12C173.765 42.08 172.385 38 172.385 32.88C172.385 29.64 172.965 26.74 174.125 24.18C175.285 21.58 176.985 19.54 179.225 18.06C181.465 16.54 184.145 15.78 187.265 15.78C191.865 15.78 195.465 17.22 198.065 20.1C200.665 22.98 201.965 26.98 201.965 32.1ZM192.665 29.4C192.585 24.52 190.865 22.08 187.505 22.08C185.865 22.08 184.585 22.68 183.665 23.88C182.785 25.08 182.245 27.06 182.045 29.82H192.665V29.4Z" fill="#141414"/>
<path d="M235.85 4.14V48.66H227.45L226.97 44.94C224.73 48.1 221.71 49.68 217.91 49.68C213.95 49.68 210.93 48.16 208.85 45.12C206.81 42.08 205.79 37.92 205.79 32.64C205.79 29.4 206.33 26.5 207.41 23.94C208.49 21.38 210.01 19.38 211.97 17.94C213.97 16.5 216.25 15.78 218.81 15.78C221.85 15.78 224.37 16.78 226.37 18.78V3.12L235.85 4.14ZM220.85 42.72C223.05 42.72 224.89 41.52 226.37 39.12V25.38C225.61 24.46 224.83 23.78 224.03 23.34C223.27 22.9 222.39 22.68 221.39 22.68C219.63 22.68 218.23 23.5 217.19 25.14C216.15 26.78 215.63 29.3 215.63 32.7C215.63 36.42 216.07 39.02 216.95 40.5C217.87 41.98 219.17 42.72 220.85 42.72Z" fill="#141414"/>
<path d="M260.547 15.9C261.707 15.9 262.767 16.04 263.727 16.32L262.227 25.5C261.027 25.22 260.067 25.08 259.347 25.08C257.467 25.08 256.027 25.74 255.027 27.06C254.067 28.34 253.307 30.28 252.747 32.88V48.66H243.267V16.8H251.547L252.327 22.98C253.047 20.78 254.127 19.06 255.567 17.82C257.047 16.54 258.707 15.9 260.547 15.9Z" fill="#141414"/>
<path d="M279.332 15.78C284.212 15.78 288.032 17.28 290.792 20.28C293.552 23.24 294.932 27.4 294.932 32.76C294.932 36.16 294.292 39.14 293.012 41.7C291.772 44.22 289.972 46.18 287.612 47.58C285.292 48.98 282.532 49.68 279.332 49.68C274.492 49.68 270.672 48.2 267.872 45.24C265.112 42.24 263.732 38.06 263.732 32.7C263.732 29.3 264.352 26.34 265.592 23.82C266.872 21.26 268.672 19.28 270.992 17.88C273.352 16.48 276.132 15.78 279.332 15.78ZM279.332 22.74C277.412 22.74 275.972 23.56 275.012 25.2C274.052 26.8 273.572 29.3 273.572 32.7C273.572 36.18 274.032 38.72 274.952 40.32C275.912 41.92 277.372 42.72 279.332 42.72C281.252 42.72 282.692 41.92 283.652 40.32C284.612 38.68 285.092 36.16 285.092 32.76C285.092 29.28 284.612 26.74 283.652 25.14C282.732 23.54 281.292 22.74 279.332 22.74Z" fill="#141414"/>
<path d="M337.13 26.64C339.89 27.16 342.13 28.18 343.85 29.7C345.61 31.22 346.49 33.5 346.49 36.54C346.49 40.98 344.89 44.12 341.69 45.96C338.53 47.76 334.09 48.66 328.37 48.66H314.99V7.08H326.75C332.59 7.08 337.05 7.92 340.13 9.6C343.21 11.24 344.75 13.94 344.75 17.7C344.75 20.14 344.01 22.12 342.53 23.64C341.09 25.12 339.29 26.12 337.13 26.64ZM324.83 14.04V23.7H328.49C332.65 23.7 334.73 22.02 334.73 18.66C334.73 16.98 334.17 15.8 333.05 15.12C331.93 14.4 330.15 14.04 327.71 14.04H324.83ZM328.43 41.52C331.03 41.52 332.99 41.14 334.31 40.38C335.67 39.58 336.35 38.12 336.35 36C336.35 32.16 333.95 30.24 329.15 30.24H324.83V41.52H328.43Z" fill="#141414"/>
<path d="M379.621 32.1C379.621 33.42 379.561 34.56 379.441 35.52H359.701C360.021 38.2 360.781 40.08 361.981 41.16C363.181 42.24 364.841 42.78 366.961 42.78C368.241 42.78 369.481 42.56 370.681 42.12C371.881 41.64 373.181 40.92 374.581 39.96L378.481 45.24C374.761 48.2 370.621 49.68 366.061 49.68C360.901 49.68 356.941 48.16 354.181 45.12C351.421 42.08 350.041 38 350.041 32.88C350.041 29.64 350.621 26.74 351.781 24.18C352.941 21.58 354.641 19.54 356.881 18.06C359.121 16.54 361.801 15.78 364.921 15.78C369.521 15.78 373.121 17.22 375.721 20.1C378.321 22.98 379.621 26.98 379.621 32.1ZM370.321 29.4C370.241 24.52 368.521 22.08 365.161 22.08C363.521 22.08 362.241 22.68 361.321 23.88C360.441 25.08 359.901 27.06 359.701 29.82H370.321V29.4Z" fill="#141414"/>
<path d="M393.406 49.68C390.646 49.68 388.486 48.9 386.926 47.34C385.406 45.74 384.646 43.48 384.646 40.56V4.14L394.126 3.12V40.2C394.126 41.52 394.666 42.18 395.746 42.18C396.306 42.18 396.826 42.08 397.306 41.88L399.166 48.6C397.446 49.32 395.526 49.68 393.406 49.68Z" fill="#141414"/>
<path d="M427.786 39.42C427.786 40.62 427.946 41.5 428.266 42.06C428.626 42.62 429.186 43.04 429.946 43.32L427.966 49.5C426.006 49.34 424.406 48.92 423.166 48.24C421.926 47.52 420.966 46.4 420.286 44.88C418.206 48.08 415.006 49.68 410.686 49.68C407.526 49.68 405.006 48.76 403.126 46.92C401.246 45.08 400.306 42.68 400.306 39.72C400.306 36.24 401.586 33.58 404.146 31.74C406.706 29.9 410.406 28.98 415.246 28.98H418.486V27.6C418.486 25.72 418.086 24.44 417.286 23.76C416.486 23.04 415.086 22.68 413.086 22.68C412.046 22.68 410.786 22.84 409.306 23.16C407.826 23.44 406.306 23.84 404.746 24.36L402.586 18.12C404.586 17.36 406.626 16.78 408.706 16.38C410.826 15.98 412.786 15.78 414.586 15.78C419.146 15.78 422.486 16.72 424.606 18.6C426.726 20.48 427.786 23.3 427.786 27.06V39.42ZM413.446 42.9C415.606 42.9 417.286 41.88 418.486 39.84V34.2H416.146C413.986 34.2 412.366 34.58 411.286 35.34C410.246 36.1 409.726 37.28 409.726 38.88C409.726 40.16 410.046 41.16 410.686 41.88C411.366 42.56 412.286 42.9 413.446 42.9Z" fill="#141414"/>
<path d="M452.617 15.9C453.777 15.9 454.837 16.04 455.797 16.32L454.297 25.5C453.097 25.22 452.137 25.08 451.417 25.08C449.537 25.08 448.097 25.74 447.097 27.06C446.137 28.34 445.377 30.28 444.817 32.88V48.66H435.337V16.8H443.617L444.397 22.98C445.117 20.78 446.197 19.06 447.637 17.82C449.117 16.54 450.777 15.9 452.617 15.9Z" fill="#141414"/>
<path d="M494.639 15.78C497.159 15.78 499.179 16.64 500.699 18.36C502.219 20.04 502.979 22.38 502.979 25.38V48.66H493.499V27C493.499 24.16 492.599 22.74 490.799 22.74C489.799 22.74 488.919 23.08 488.159 23.76C487.399 24.44 486.659 25.48 485.939 26.88V48.66H476.459V27C476.459 24.16 475.559 22.74 473.759 22.74C472.799 22.74 471.919 23.1 471.119 23.82C470.359 24.5 469.619 25.52 468.899 26.88V48.66H459.419V16.8H467.699L468.359 20.52C469.599 18.92 470.959 17.74 472.439 16.98C473.959 16.18 475.679 15.78 477.599 15.78C479.399 15.78 480.939 16.22 482.219 17.1C483.539 17.98 484.499 19.22 485.099 20.82C486.379 19.1 487.779 17.84 489.299 17.04C490.859 16.2 492.639 15.78 494.639 15.78Z" fill="#141414"/>
<path d="M519.583 16.8V48.66H510.103V16.8H519.583ZM514.783 0C516.423 0 517.763 0.52 518.803 1.56C519.883 2.56 520.423 3.84 520.423 5.4C520.423 6.96 519.883 8.26 518.803 9.3C517.763 10.3 516.423 10.8 514.783 10.8C513.143 10.8 511.803 10.3 510.763 9.3C509.723 8.26 509.203 6.96 509.203 5.4C509.203 3.84 509.723 2.56 510.763 1.56C511.803 0.52 513.143 0 514.783 0Z" fill="#141414"/>
<path d="M545.696 15.78C548.456 15.78 550.616 16.62 552.176 18.3C553.736 19.98 554.516 22.34 554.516 25.38V48.66H545.036V27C545.036 25.4 544.776 24.3 544.256 23.7C543.776 23.06 543.036 22.74 542.036 22.74C540.116 22.74 538.276 24.12 536.516 26.88V48.66H527.036V16.8H535.316L535.976 20.58C537.336 18.98 538.796 17.78 540.356 16.98C541.956 16.18 543.736 15.78 545.696 15.78Z" fill="#141414"/>
<path d="M575.465 15.78C580.345 15.78 584.165 17.28 586.925 20.28C589.685 23.24 591.065 27.4 591.065 32.76C591.065 36.16 590.425 39.14 589.145 41.7C587.905 44.22 586.105 46.18 583.745 47.58C581.425 48.98 578.665 49.68 575.465 49.68C570.625 49.68 566.805 48.2 564.005 45.24C561.245 42.24 559.865 38.06 559.865 32.7C559.865 29.3 560.485 26.34 561.725 23.82C563.005 21.26 564.805 19.28 567.125 17.88C569.485 16.48 572.265 15.78 575.465 15.78ZM575.465 22.74C573.545 22.74 572.105 23.56 571.145 25.2C570.185 26.8 569.705 29.3 569.705 32.7C569.705 36.18 570.165 38.72 571.085 40.32C572.045 41.92 573.505 42.72 575.465 42.72C577.385 42.72 578.825 41.92 579.785 40.32C580.745 38.68 581.225 36.16 581.225 32.76C581.225 29.28 580.745 26.74 579.785 25.14C578.865 23.54 577.425 22.74 575.465 22.74Z" fill="#141414"/>
</svg>
