<svg width="16" height="16" viewBox="0 0 16 16" fill="none" xmlns="http://www.w3.org/2000/svg">
<g clip-path="url(#clip0_1_6)">
<path d="M8.051 1.99899H8.14C8.962 2.00199 13.127 2.03199 14.25 2.33399C14.5895 2.42616 14.8989 2.60582 15.1472 2.855C15.3955 3.10419 15.574 3.41418 15.665 3.75399C15.766 4.13399 15.837 4.63699 15.885 5.15599L15.895 5.25999L15.917 5.51999L15.925 5.62399C15.99 6.53799 15.998 7.39399 15.999 7.58099V7.65599C15.998 7.84999 15.989 8.76399 15.917 9.71599L15.909 9.82099L15.9 9.92499C15.85 10.497 15.776 11.065 15.665 11.483C15.5743 11.8229 15.3958 12.1331 15.1475 12.3823C14.8991 12.6315 14.5896 12.8111 14.25 12.903C13.09 13.215 8.681 13.237 8.07 13.238H7.928C7.619 13.238 6.341 13.232 5.001 13.186L4.831 13.18L4.744 13.176L4.573 13.169L4.402 13.162C3.292 13.113 2.235 13.034 1.748 12.902C1.40849 12.8102 1.09907 12.6308 0.850724 12.3817C0.602384 12.1327 0.423847 11.8228 0.333 11.483C0.222 11.066 0.148 10.497 0.098 9.92499L0.09 9.81999L0.082 9.71599C0.0326476 9.03839 0.00529987 8.35937 0 7.67999L0 7.55699C0.002 7.34199 0.01 6.59899 0.064 5.77899L0.071 5.67599L0.074 5.62399L0.082 5.51999L0.104 5.25999L0.114 5.15599C0.162 4.63699 0.233 4.13299 0.334 3.75399C0.424694 3.41404 0.603162 3.1039 0.851513 2.85468C1.09986 2.60545 1.40937 2.42589 1.749 2.33399C2.236 2.20399 3.293 2.12399 4.403 2.07399L4.573 2.06699L4.745 2.06099L4.831 2.05799L5.002 2.05099C5.95371 2.02037 6.90581 2.00337 7.858 1.99999H8.051V1.99899ZM6.4 5.20899V10.027L10.557 7.61899L6.4 5.20899Z" fill="white"/>
</g>
<defs>
<clipPath id="clip0_1_6">
<rect width="16" height="16" fill="white"/>
</clipPath>
</defs>
</svg>
